<mxfile host="app.diagrams.net" agent="Mozilla/5.0 (Windows NT 10.0; Win64; x64) AppleWebKit/537.36 (KHTML, like Gecko) Chrome/129.0.0.0 Safari/537.36" version="24.8.0">
  <diagram id="C5RBs43oDa-KdzZeNtuy" name="Page-1">
    <mxGraphModel dx="344" dy="510" grid="1" gridSize="10" guides="1" tooltips="1" connect="1" arrows="1" fold="1" page="1" pageScale="1" pageWidth="827" pageHeight="1169" math="0" shadow="0">
      <root>
        <mxCell id="WIyWlLk6GJQsqaUBKTNV-0" />
        <mxCell id="WIyWlLk6GJQsqaUBKTNV-1" parent="WIyWlLk6GJQsqaUBKTNV-0" />
        <mxCell id="OB-vQyYwGmHaTPUeehGj-5" value="" style="edgeStyle=orthogonalEdgeStyle;rounded=0;orthogonalLoop=1;jettySize=auto;html=1;entryX=0;entryY=0.5;entryDx=0;entryDy=0;" parent="WIyWlLk6GJQsqaUBKTNV-1" source="WIyWlLk6GJQsqaUBKTNV-6" target="OB-vQyYwGmHaTPUeehGj-7" edge="1">
          <mxGeometry relative="1" as="geometry">
            <mxPoint x="350" y="210" as="targetPoint" />
          </mxGeometry>
        </mxCell>
        <mxCell id="OB-vQyYwGmHaTPUeehGj-6" value="Нажата" style="edgeLabel;html=1;align=center;verticalAlign=middle;resizable=0;points=[];" parent="OB-vQyYwGmHaTPUeehGj-5" vertex="1" connectable="0">
          <mxGeometry x="-0.2694" y="-1" relative="1" as="geometry">
            <mxPoint x="4" y="-11" as="offset" />
          </mxGeometry>
        </mxCell>
        <mxCell id="OB-vQyYwGmHaTPUeehGj-13" value="" style="edgeStyle=orthogonalEdgeStyle;rounded=0;orthogonalLoop=1;jettySize=auto;html=1;entryX=0.5;entryY=0;entryDx=0;entryDy=0;exitX=0.5;exitY=1;exitDx=0;exitDy=0;" parent="WIyWlLk6GJQsqaUBKTNV-1" source="WIyWlLk6GJQsqaUBKTNV-6" target="OB-vQyYwGmHaTPUeehGj-11" edge="1">
          <mxGeometry relative="1" as="geometry" />
        </mxCell>
        <mxCell id="OB-vQyYwGmHaTPUeehGj-14" value="Не нажата" style="edgeLabel;html=1;align=center;verticalAlign=middle;resizable=0;points=[];" parent="OB-vQyYwGmHaTPUeehGj-13" vertex="1" connectable="0">
          <mxGeometry x="0.379" y="2" relative="1" as="geometry">
            <mxPoint x="-2" y="-11" as="offset" />
          </mxGeometry>
        </mxCell>
        <mxCell id="WIyWlLk6GJQsqaUBKTNV-6" value="&lt;font style=&quot;font-size: 7px;&quot;&gt;Проверка кнопки &quot;Сброс&quot;&lt;/font&gt;" style="rhombus;whiteSpace=wrap;html=1;shadow=0;fontFamily=Helvetica;fontSize=12;align=center;strokeWidth=1;spacing=6;spacingTop=-4;" parent="WIyWlLk6GJQsqaUBKTNV-1" vertex="1">
          <mxGeometry x="160" y="170" width="120" height="70" as="geometry" />
        </mxCell>
        <mxCell id="OB-vQyYwGmHaTPUeehGj-3" style="edgeStyle=orthogonalEdgeStyle;rounded=0;orthogonalLoop=1;jettySize=auto;html=1;entryX=0.5;entryY=0;entryDx=0;entryDy=0;" parent="WIyWlLk6GJQsqaUBKTNV-1" source="OB-vQyYwGmHaTPUeehGj-0" target="WIyWlLk6GJQsqaUBKTNV-6" edge="1">
          <mxGeometry relative="1" as="geometry" />
        </mxCell>
        <mxCell id="OB-vQyYwGmHaTPUeehGj-0" value="Запуск таймера (0,43 сек)" style="rounded=0;whiteSpace=wrap;html=1;fontSize=12;glass=0;strokeWidth=1;shadow=0;" parent="WIyWlLk6GJQsqaUBKTNV-1" vertex="1">
          <mxGeometry x="160" y="110" width="120" height="40" as="geometry" />
        </mxCell>
        <mxCell id="OB-vQyYwGmHaTPUeehGj-4" value="" style="edgeStyle=orthogonalEdgeStyle;rounded=0;orthogonalLoop=1;jettySize=auto;html=1;" parent="WIyWlLk6GJQsqaUBKTNV-1" source="OB-vQyYwGmHaTPUeehGj-1" target="OB-vQyYwGmHaTPUeehGj-0" edge="1">
          <mxGeometry relative="1" as="geometry" />
        </mxCell>
        <mxCell id="OB-vQyYwGmHaTPUeehGj-1" value="Начало" style="rounded=1;whiteSpace=wrap;html=1;fontSize=12;glass=0;strokeWidth=1;shadow=0;" parent="WIyWlLk6GJQsqaUBKTNV-1" vertex="1">
          <mxGeometry x="160" y="50" width="120" height="40" as="geometry" />
        </mxCell>
        <mxCell id="OB-vQyYwGmHaTPUeehGj-31" style="edgeStyle=orthogonalEdgeStyle;rounded=0;orthogonalLoop=1;jettySize=auto;html=1;entryX=1;entryY=0.5;entryDx=0;entryDy=0;" parent="WIyWlLk6GJQsqaUBKTNV-1" source="OB-vQyYwGmHaTPUeehGj-7" target="OB-vQyYwGmHaTPUeehGj-20" edge="1">
          <mxGeometry relative="1" as="geometry">
            <Array as="points">
              <mxPoint x="500" y="205" />
              <mxPoint x="500" y="405" />
            </Array>
          </mxGeometry>
        </mxCell>
        <mxCell id="OB-vQyYwGmHaTPUeehGj-7" value="Установить текущую комбинацию на &quot;0&quot;" style="rounded=0;whiteSpace=wrap;html=1;fontSize=12;glass=0;strokeWidth=1;shadow=0;" parent="WIyWlLk6GJQsqaUBKTNV-1" vertex="1">
          <mxGeometry x="353" y="185" width="127" height="40" as="geometry" />
        </mxCell>
        <mxCell id="OB-vQyYwGmHaTPUeehGj-9" value="" style="edgeStyle=orthogonalEdgeStyle;rounded=0;orthogonalLoop=1;jettySize=auto;html=1;entryX=0;entryY=0.5;entryDx=0;entryDy=0;" parent="WIyWlLk6GJQsqaUBKTNV-1" source="OB-vQyYwGmHaTPUeehGj-11" target="OB-vQyYwGmHaTPUeehGj-12" edge="1">
          <mxGeometry relative="1" as="geometry">
            <mxPoint x="350" y="310" as="targetPoint" />
          </mxGeometry>
        </mxCell>
        <mxCell id="OB-vQyYwGmHaTPUeehGj-10" value="Нажата" style="edgeLabel;html=1;align=center;verticalAlign=middle;resizable=0;points=[];" parent="OB-vQyYwGmHaTPUeehGj-9" vertex="1" connectable="0">
          <mxGeometry x="-0.2694" y="-1" relative="1" as="geometry">
            <mxPoint x="4" y="-11" as="offset" />
          </mxGeometry>
        </mxCell>
        <mxCell id="OB-vQyYwGmHaTPUeehGj-11" value="&lt;font style=&quot;font-size: 7px;&quot;&gt;Проверка кнопки &quot;Пауза&quot;&lt;/font&gt;" style="rhombus;whiteSpace=wrap;html=1;shadow=0;fontFamily=Helvetica;fontSize=12;align=center;strokeWidth=1;spacing=6;spacingTop=-4;" parent="WIyWlLk6GJQsqaUBKTNV-1" vertex="1">
          <mxGeometry x="160" y="270" width="120" height="70" as="geometry" />
        </mxCell>
        <mxCell id="OB-vQyYwGmHaTPUeehGj-12" value="Перейти в состояние ожидания" style="rounded=0;whiteSpace=wrap;html=1;fontSize=12;glass=0;strokeWidth=1;shadow=0;" parent="WIyWlLk6GJQsqaUBKTNV-1" vertex="1">
          <mxGeometry x="353" y="285" width="127" height="40" as="geometry" />
        </mxCell>
        <mxCell id="OB-vQyYwGmHaTPUeehGj-15" value="" style="edgeStyle=orthogonalEdgeStyle;rounded=0;orthogonalLoop=1;jettySize=auto;html=1;exitX=0.5;exitY=1;exitDx=0;exitDy=0;" parent="WIyWlLk6GJQsqaUBKTNV-1" source="OB-vQyYwGmHaTPUeehGj-11" edge="1">
          <mxGeometry relative="1" as="geometry">
            <mxPoint x="219.66" y="340" as="sourcePoint" />
            <mxPoint x="220" y="370" as="targetPoint" />
          </mxGeometry>
        </mxCell>
        <mxCell id="OB-vQyYwGmHaTPUeehGj-16" value="Не нажата" style="edgeLabel;html=1;align=center;verticalAlign=middle;resizable=0;points=[];" parent="OB-vQyYwGmHaTPUeehGj-15" vertex="1" connectable="0">
          <mxGeometry x="0.379" y="2" relative="1" as="geometry">
            <mxPoint x="-2" y="-11" as="offset" />
          </mxGeometry>
        </mxCell>
        <mxCell id="OB-vQyYwGmHaTPUeehGj-17" value="" style="edgeStyle=orthogonalEdgeStyle;rounded=0;orthogonalLoop=1;jettySize=auto;html=1;entryX=0;entryY=0.5;entryDx=0;entryDy=0;" parent="WIyWlLk6GJQsqaUBKTNV-1" source="OB-vQyYwGmHaTPUeehGj-19" target="OB-vQyYwGmHaTPUeehGj-20" edge="1">
          <mxGeometry relative="1" as="geometry">
            <mxPoint x="350" y="410" as="targetPoint" />
          </mxGeometry>
        </mxCell>
        <mxCell id="OB-vQyYwGmHaTPUeehGj-18" value="Да" style="edgeLabel;html=1;align=center;verticalAlign=middle;resizable=0;points=[];" parent="OB-vQyYwGmHaTPUeehGj-17" vertex="1" connectable="0">
          <mxGeometry x="-0.2694" y="-1" relative="1" as="geometry">
            <mxPoint x="-7" y="-11" as="offset" />
          </mxGeometry>
        </mxCell>
        <mxCell id="OB-vQyYwGmHaTPUeehGj-19" value="&lt;font style=&quot;font-size: 7px;&quot;&gt;Таймер истёк?&lt;/font&gt;" style="rhombus;whiteSpace=wrap;html=1;shadow=0;fontFamily=Helvetica;fontSize=12;align=center;strokeWidth=1;spacing=6;spacingTop=-4;" parent="WIyWlLk6GJQsqaUBKTNV-1" vertex="1">
          <mxGeometry x="160" y="370" width="120" height="70" as="geometry" />
        </mxCell>
        <mxCell id="OB-vQyYwGmHaTPUeehGj-30" value="" style="edgeStyle=orthogonalEdgeStyle;rounded=0;orthogonalLoop=1;jettySize=auto;html=1;" parent="WIyWlLk6GJQsqaUBKTNV-1" source="OB-vQyYwGmHaTPUeehGj-20" target="OB-vQyYwGmHaTPUeehGj-25" edge="1">
          <mxGeometry relative="1" as="geometry" />
        </mxCell>
        <mxCell id="OB-vQyYwGmHaTPUeehGj-20" value="&lt;font style=&quot;font-size: 10px;&quot;&gt;Инкрементировать индекс текущей комбинации&lt;/font&gt;" style="rounded=0;whiteSpace=wrap;html=1;fontSize=12;glass=0;strokeWidth=1;shadow=0;" parent="WIyWlLk6GJQsqaUBKTNV-1" vertex="1">
          <mxGeometry x="353" y="385" width="127" height="40" as="geometry" />
        </mxCell>
        <mxCell id="OB-vQyYwGmHaTPUeehGj-21" value="" style="edgeStyle=orthogonalEdgeStyle;rounded=0;orthogonalLoop=1;jettySize=auto;html=1;exitX=0;exitY=0.5;exitDx=0;exitDy=0;entryX=0;entryY=0.5;entryDx=0;entryDy=0;" parent="WIyWlLk6GJQsqaUBKTNV-1" source="OB-vQyYwGmHaTPUeehGj-19" target="WIyWlLk6GJQsqaUBKTNV-6" edge="1">
          <mxGeometry relative="1" as="geometry">
            <mxPoint x="219.66" y="440" as="sourcePoint" />
            <mxPoint x="220" y="470" as="targetPoint" />
            <Array as="points">
              <mxPoint x="120" y="405" />
              <mxPoint x="120" y="205" />
            </Array>
          </mxGeometry>
        </mxCell>
        <mxCell id="OB-vQyYwGmHaTPUeehGj-29" value="Нет" style="edgeLabel;html=1;align=center;verticalAlign=middle;resizable=0;points=[];" parent="OB-vQyYwGmHaTPUeehGj-21" vertex="1" connectable="0">
          <mxGeometry x="-0.9071" y="1" relative="1" as="geometry">
            <mxPoint x="-5" y="-9" as="offset" />
          </mxGeometry>
        </mxCell>
        <mxCell id="OB-vQyYwGmHaTPUeehGj-32" style="edgeStyle=orthogonalEdgeStyle;rounded=0;orthogonalLoop=1;jettySize=auto;html=1;entryX=0;entryY=0.5;entryDx=0;entryDy=0;" parent="WIyWlLk6GJQsqaUBKTNV-1" source="OB-vQyYwGmHaTPUeehGj-25" target="OB-vQyYwGmHaTPUeehGj-0" edge="1">
          <mxGeometry relative="1" as="geometry">
            <Array as="points">
              <mxPoint x="90" y="460" />
              <mxPoint x="90" y="130" />
            </Array>
          </mxGeometry>
        </mxCell>
        <mxCell id="OB-vQyYwGmHaTPUeehGj-25" value="&lt;span style=&quot;font-family: Roboto, -apple-system, BlinkMacSystemFont, &amp;quot;Apple Color Emoji&amp;quot;, &amp;quot;Segoe UI&amp;quot;, Oxygen, Ubuntu, Cantarell, &amp;quot;Fira Sans&amp;quot;, &amp;quot;Droid Sans&amp;quot;, &amp;quot;Helvetica Neue&amp;quot;, sans-serif; text-align: start; white-space-collapse: preserve; background-color: rgb(255, 255, 255);&quot;&gt;&lt;font style=&quot;font-size: 12px;&quot;&gt;Обновить по текущей комбинации&lt;/font&gt;&lt;/span&gt;" style="rounded=0;whiteSpace=wrap;html=1;fontSize=12;glass=0;strokeWidth=1;shadow=0;" parent="WIyWlLk6GJQsqaUBKTNV-1" vertex="1">
          <mxGeometry x="353" y="440" width="127" height="40" as="geometry" />
        </mxCell>
      </root>
    </mxGraphModel>
  </diagram>
</mxfile>
